<svg xmlns="http://www.w3.org/2000/svg" version="1.1" viewBox="20 0 60 100.0" height="40" width="32" fill="#4500c8">
  <path d="m50 90c-0.92578 0-1.8008-0.41406-2.3867-1.1328-0.27344-0.33594-6.8125-8.3789-13.465-18.371-9.1602-13.762-13.805-24.141-13.805-30.844 0.003906-16.352 13.305-29.652 29.656-29.652s29.652 13.301 29.652 29.652c0 6.7031-4.6445 17.082-13.805 30.844-6.6484 9.9922-13.188 18.035-13.465 18.371-0.58203 0.71875-1.457 1.1328-2.3828 1.1328zm0-73.848c-12.957 0-23.496 10.539-23.496 23.496 0 10.055 15.242 31.719 23.496 42.328 8.2539-10.605 23.496-32.27 23.496-42.328 0-12.953-10.539-23.496-23.496-23.496z"/>
  <path d="m50 51.738c-7.0117 0-12.715-5.7031-12.715-12.715 0-7.0117 5.7031-12.715 12.715-12.715s12.715 5.7031 12.715 12.715c0 7.0117-5.7031 12.715-12.715 12.715zm0-19.273c-3.6172 0-6.5625 2.9414-6.5625 6.5625 0 3.6172 2.9414 6.5625 6.5625 6.5625 3.6172 0 6.5625-2.9414 6.5625-6.5625s-2.9453-6.5625-6.5625-6.5625z"/>
</svg>
