<svg width="36" height="41" viewBox="0 0 36 41" fill="none" xmlns="http://www.w3.org/2000/svg">
<path d="M31.2188 12.0437L30.15 10.8265L20.25 22.1015C19.0125 23.5109 16.9313 23.5109 15.6938 22.1015L5.79376 10.8906L4.72501 12.1078L12.0938 20.5L4.72501 28.8922L5.79376 30.1094L13.1625 21.7172L14.625 23.3828C15.525 24.4078 16.7063 24.9844 17.9438 24.9844C19.1813 24.9844 20.3625 24.4078 21.2625 23.3828L22.725 21.7172L30.0938 30.1094L31.1625 28.8922L23.7938 20.5L31.2188 12.0437Z" fill="#4500C8"/>
<path d="M29.1375 32.2874H6.91875C5.625 32.2874 4.55624 31.0703 4.55624 29.5968V11.5312C4.55624 10.0578 5.625 8.84058 6.91875 8.84058H29.1375C30.4312 8.84058 31.5 10.0578 31.5 11.5312V29.5968C31.5 31.0703 30.4312 32.2874 29.1375 32.2874ZM6.86249 10.5703C6.41249 10.5703 6.075 10.9546 6.075 11.4671V29.5328C6.075 30.0453 6.41249 30.4296 6.86249 30.4296H29.0812C29.5312 30.4296 29.8687 30.0453 29.8687 29.5328V11.4671C29.8687 10.9546 29.5312 10.5703 29.0812 10.5703H6.86249Z" fill="#4500C8"/>
</svg>
